<svg width="162" height="162" viewBox="0 0 162 162" fill="none" xmlns="http://www.w3.org/2000/svg">
<path d="M77.8123 4.46049C77.735 2.47379 79.2836 0.792116 81.2717 0.80387C96.8455 0.895939 112.086 5.5155 125.118 14.1378C139.152 23.4233 149.915 36.8822 155.888 52.6143C161.861 68.3464 162.742 85.5573 158.407 101.817C154.072 118.077 144.74 132.565 131.727 143.235C118.715 153.906 102.68 160.22 85.886 161.286C69.0919 162.352 52.3871 158.117 38.1296 149.179C23.872 140.24 12.7821 127.049 6.4251 111.468C0.52226 96.9999 -1.02276 81.1498 1.9373 65.8596C2.31518 63.9076 4.2676 62.7184 6.20068 63.1834C8.13376 63.6483 9.31464 65.5913 8.94537 67.545C6.33287 81.3665 7.7586 95.6769 13.0915 108.748C18.8787 122.932 28.9746 134.941 41.9541 143.078C54.9336 151.216 70.141 155.071 85.4297 154.101C100.718 153.13 115.316 147.382 127.162 137.668C139.008 127.954 147.504 114.765 151.45 99.9624C155.397 85.16 154.595 69.4919 149.157 55.1699C143.719 40.848 133.921 28.5956 121.145 20.1423C109.371 12.3525 95.6173 8.15154 81.5518 8.0063C79.5637 7.98577 77.8896 6.4472 77.8123 4.46049Z" fill="#0088F0"/>
</svg>
