<svg width="112" height="112" viewBox="0 0 112 112" fill="none" xmlns="http://www.w3.org/2000/svg">
<path d="M53.7982 3.00272C53.7465 1.62609 54.8209 0.462305 56.1985 0.472252C68.1965 0.558885 79.8712 4.52286 89.4608 11.8076C99.7139 19.5962 106.949 30.699 109.934 43.2242C112.918 55.7494 111.468 68.922 105.829 80.4976C100.19 92.0731 90.7125 101.335 79.0102 106.706C67.308 112.077 54.1055 113.224 41.6523 109.952C29.1992 106.68 18.2658 99.1911 10.7151 88.7616C3.1645 78.332 -0.536233 65.607 0.243499 52.7547C0.972782 40.734 5.57931 29.2976 13.3365 20.1442C14.2271 19.0932 15.8101 19.0373 16.8201 19.9742C17.8301 20.911 17.8842 22.4855 16.9982 23.5404C10.0235 31.8446 5.88244 42.1883 5.22306 53.0568C4.51322 64.757 7.88223 76.3414 14.7561 85.8361C21.6299 95.3308 31.5832 102.148 42.9201 105.127C54.257 108.106 66.2761 107.062 76.9293 102.172C87.5826 97.2828 96.211 88.8508 101.344 78.3128C106.478 67.7749 107.798 55.7831 105.081 44.3806C102.364 32.9782 95.7772 22.8706 86.4432 15.7801C77.7727 9.19365 67.2299 5.58913 56.3861 5.46295C55.0086 5.44692 53.85 4.37934 53.7982 3.00272Z" fill="#EF2A82"/>
</svg>
